<svg width="235" height="51" viewBox="0 0 235 51" fill="none" xmlns="http://www.w3.org/2000/svg">
<path d="M29.574 6.995V16.511H12.372V24.075H25.06V33.164H12.372V50H0.416V6.995H29.574ZM30.8274 32.859C30.8274 29.321 31.4577 26.2303 32.7184 23.587C34.0197 20.9437 35.7684 18.9103 37.9644 17.487C40.201 16.0637 42.6817 15.352 45.4064 15.352C47.765 15.352 49.7984 15.8197 51.5064 16.755C53.2144 17.6903 54.536 18.951 55.4714 20.537V15.779H67.4274V50H55.4714V45.242C54.536 46.828 53.194 48.0887 51.4454 49.024C49.7374 49.9593 47.7244 50.427 45.4064 50.427C42.6817 50.427 40.201 49.7153 37.9644 48.292C35.7684 46.8687 34.0197 44.8353 32.7184 42.192C31.4577 39.508 30.8274 36.397 30.8274 32.859ZM55.4714 32.859C55.4714 30.663 54.8614 28.9347 53.6414 27.674C52.462 26.4133 50.998 25.783 49.2494 25.783C47.46 25.783 45.9757 26.4133 44.7964 27.674C43.617 28.894 43.0274 30.6223 43.0274 32.859C43.0274 35.055 43.617 36.8037 44.7964 38.105C45.9757 39.3657 47.46 39.996 49.2494 39.996C50.998 39.996 52.462 39.3657 53.6414 38.105C54.8614 36.8443 55.4714 35.0957 55.4714 32.859ZM86.9893 50.427C83.8986 50.427 81.1333 49.9187 78.6933 48.902C76.294 47.8447 74.3826 46.4213 72.9593 44.632C71.5766 42.802 70.804 40.7483 70.6413 38.471H82.2313C82.394 39.569 82.9023 40.423 83.7563 41.033C84.6103 41.643 85.6676 41.948 86.9283 41.948C87.9043 41.948 88.677 41.7447 89.2463 41.338C89.8156 40.9313 90.1003 40.4027 90.1003 39.752C90.1003 38.898 89.6326 38.2677 88.6973 37.861C87.762 37.4543 86.2166 37.007 84.0613 36.519C81.6213 36.031 79.588 35.482 77.9613 34.872C76.3346 34.262 74.9113 33.2657 73.6913 31.883C72.512 30.5003 71.9223 28.6297 71.9223 26.271C71.9223 24.2377 72.4713 22.4077 73.5693 20.781C74.6673 19.1137 76.2736 17.792 78.3883 16.816C80.5436 15.84 83.126 15.352 86.1353 15.352C90.6086 15.352 94.1263 16.45 96.6883 18.646C99.2503 20.842 100.735 23.7293 101.141 27.308H90.3443C90.141 26.21 89.653 25.3763 88.8803 24.807C88.1483 24.197 87.152 23.892 85.8913 23.892C84.9153 23.892 84.163 24.075 83.6343 24.441C83.1463 24.807 82.9023 25.3153 82.9023 25.966C82.9023 26.7793 83.37 27.4097 84.3053 27.857C85.2406 28.2637 86.7453 28.6907 88.8193 29.138C91.3 29.6667 93.3536 30.2563 94.9803 30.907C96.6476 31.5577 98.0913 32.615 99.3113 34.079C100.572 35.5023 101.202 37.4543 101.202 39.935C101.202 41.9277 100.613 43.717 99.4333 45.303C98.2946 46.889 96.6476 48.1497 94.4923 49.085C92.3776 49.9797 89.8766 50.427 86.9893 50.427ZM127.759 15.474C131.663 15.474 134.754 16.7957 137.031 19.439C139.349 22.0417 140.508 25.5797 140.508 30.053V50H128.552V31.639C128.552 29.687 128.044 28.162 127.027 27.064C126.011 25.9253 124.648 25.356 122.94 25.356C121.151 25.356 119.748 25.9253 118.731 27.064C117.715 28.162 117.206 29.687 117.206 31.639V50H105.25V4.86H117.206V20.659C118.264 19.1137 119.687 17.8733 121.476 16.938C123.306 15.962 125.401 15.474 127.759 15.474ZM151.278 12.607C149.163 12.607 147.455 12.0377 146.154 10.899C144.893 9.71967 144.263 8.25566 144.263 6.507C144.263 4.71766 144.893 3.23333 146.154 2.054C147.455 0.874664 149.163 0.284997 151.278 0.284997C153.352 0.284997 155.019 0.874664 156.28 2.054C157.581 3.23333 158.232 4.71766 158.232 6.507C158.232 8.25566 157.581 9.71967 156.28 10.899C155.019 12.0377 153.352 12.607 151.278 12.607ZM157.195 15.779V50H145.239V15.779H157.195Z" fill="black"/>
<path d="M178.094 50.427C174.678 50.427 171.608 49.7153 168.883 48.292C166.199 46.8687 164.085 44.8353 162.539 42.192C160.994 39.5487 160.221 36.4377 160.221 32.859C160.221 29.321 160.994 26.2303 162.539 23.587C164.125 20.9437 166.26 18.9103 168.944 17.487C171.669 16.0637 174.739 15.352 178.155 15.352C181.571 15.352 184.621 16.0637 187.305 17.487C190.03 18.9103 192.165 20.9437 193.71 23.587C195.296 26.2303 196.089 29.321 196.089 32.859C196.089 36.397 195.296 39.508 193.71 42.192C192.165 44.8353 190.03 46.8687 187.305 48.292C184.581 49.7153 181.51 50.427 178.094 50.427ZM178.094 40.057C179.762 40.057 181.144 39.447 182.242 38.227C183.381 36.9663 183.95 35.177 183.95 32.859C183.95 30.541 183.381 28.772 182.242 27.552C181.144 26.332 179.782 25.722 178.155 25.722C176.529 25.722 175.166 26.332 174.068 27.552C172.97 28.772 172.421 30.541 172.421 32.859C172.421 35.2177 172.95 37.007 174.007 38.227C175.065 39.447 176.427 40.057 178.094 40.057ZM221.511 15.474C225.455 15.474 228.587 16.7957 230.905 19.439C233.223 22.0417 234.382 25.5797 234.382 30.053V50H222.426V31.639C222.426 29.687 221.917 28.162 220.901 27.064C219.884 25.9253 218.522 25.356 216.814 25.356C215.024 25.356 213.621 25.9253 212.605 27.064C211.588 28.162 211.08 29.687 211.08 31.639V50H199.124V15.779H211.08V20.659C212.137 19.1137 213.56 17.8733 215.35 16.938C217.139 15.962 219.193 15.474 221.511 15.474Z" fill="#AA0000"/>
</svg>


